<?xml version="1.0" standalone="no"?>
<!DOCTYPE svg PUBLIC "-//W3C//DTD SVG 20010904//EN"
 "http://www.w3.org/TR/2001/REC-SVG-20010904/DTD/svg10.dtd">
<svg version="1.0" xmlns="http://www.w3.org/2000/svg"
 width="134.000000pt" height="134.000000pt" viewBox="0 0 134.000000 134.000000"
 preserveAspectRatio="xMidYMid meet">
<g transform="translate(0.000000,134.000000) scale(0.100000,-0.100000)"
fill="#000000" stroke="none">
<path d="M141 1168 c12 -29 29 -73 39 -98 9 -25 36 -91 59 -148 22 -56 41
-104 41 -106 0 -3 -26 -10 -57 -16 -108 -22 -227 -87 -215 -118 3 -9 22 -45
43 -79 l36 -63 26 20 c43 34 136 72 191 79 l51 6 111 -265 112 -265 112 0 112
0 25 60 c13 33 30 74 38 90 7 17 23 53 35 80 12 28 28 66 37 86 l16 36 71 -23
c79 -25 113 -32 202 -40 l60 -6 22 75 c12 42 25 82 28 90 4 12 -7 15 -63 14
-73 0 -142 8 -211 25 -37 9 -43 14 -38 32 3 11 57 148 119 304 l114 282 -126
0 -127 0 -83 -227 c-97 -266 -112 -303 -123 -303 -5 0 -55 20 -113 45 -58 24
-116 47 -129 51 -14 3 -26 15 -29 27 -2 12 -36 108 -75 212 l-70 190 -131 3
-131 3 21 -53z m572 -624 c27 -13 36 -22 31 -33 -3 -9 -15 -41 -26 -71 -26
-71 -33 -78 -46 -43 -5 15 -24 65 -40 110 l-31 82 37 -13 c20 -8 54 -22 75
-32z"/>
</g>
</svg>
